<?xml version="1.0" standalone="no"?>
<!DOCTYPE svg PUBLIC "-//W3C//DTD SVG 20010904//EN"
 "http://www.w3.org/TR/2001/REC-SVG-20010904/DTD/svg10.dtd">
<svg version="1.0" xmlns="http://www.w3.org/2000/svg"
 width="400.000000pt" height="400.000000pt" viewBox="0 0 400.000000 400.000000"
 preserveAspectRatio="xMidYMid meet">
<metadata>
Created by potrace 1.11, written by Peter Selinger 2001-2013
</metadata>
<g transform="translate(0.000000,400.000000) scale(0.100000,-0.100000)"
fill="#000000" stroke="none">
<path d="M1846 3889 c-672 -55 -1267 -466 -1557 -1074 -177 -372 -227 -789
-144 -1201 132 -656 620 -1203 1261 -1413 387 -127 801 -127 1188 0 490 161
895 517 1117 984 244 513 244 1117 0 1630 -157 328 -414 614 -726 805 -172
106 -416 200 -619 239 -95 19 -346 43 -401 40 -11 -1 -65 -5 -119 -10z m-701
-1121 c-15 -151 -55 -1016 -55 -1180 l0 -98 -160 0 -160 0 4 23 c14 65 45 667
53 1020 l6 287 159 0 158 0 -5 -52z m647 -160 c-284 -339 -303 -362 -323 -390
l-19 -26 88 -119 c49 -65 165 -218 258 -339 94 -120 173 -225 178 -232 5 -9
-33 -12 -176 -12 l-183 0 -29 48 c-36 57 -387 562 -428 614 -18 23 -26 43 -22
50 4 7 64 83 134 168 150 186 298 373 329 418 l22 32 175 0 175 0 -179 -212z
m1408 -1323 l0 -75 -500 0 -500 0 0 75 0 75 500 0 500 0 0 -75z"/>
</g>
</svg>
